
		<svg xmlns="http://www.w3.org/2000/svg" xmlns:xlink="http://www.w3.org/1999/xlink" version="1.1" width="3300" height="1650">
			
			<g transform="scale(15) translate(10, 10)">
				<defs id="SvgjsDefs5976"><linearGradient id="SvgjsLinearGradient5980"><stop id="SvgjsStop5981" stop-color="#7f00ff" offset="0"/><stop id="SvgjsStop5982" stop-color="#e100ff" offset="1"/></linearGradient><linearGradient id="SvgjsLinearGradient5983"><stop id="SvgjsStop5984" stop-color="#7f00ff" offset="0"/><stop id="SvgjsStop5985" stop-color="#e100ff" offset="1"/></linearGradient></defs><g id="SvgjsG5977" featureKey="root" fill="#000"/><g id="SvgjsG5978" featureKey="text1" fill="#000" transform="matrix(2.763013495914462,0,0,2.763013495914462,-1.9102824556906417,-18.51985041125206)"><path d="M14.169 23.62712 c0.10169 0.20339 0.034229 0.37271 -0.20305 0.37271 l-1.9831 0 c-0.16949 0 -0.27119 -0.08458 -0.33898 -0.22017 l-0.91525 -1.9322 l-6.5256 0 l-0.91525 1.9322 c-0.067797 0.13559 -0.18644 0.22017 -0.33898 0.22017 l-2 0 c-0.20339 0 -0.32203 -0.16933 -0.22034 -0.37271 l6.3898 -13.102 c0.067797 -0.11881 0.15238 -0.16966 0.23712 -0.16966 l0.20339 0 c0.10169 0 0.16949 0.050847 0.23729 0.16966 z M5.2375 19.6441 l4.4576 0 l-2.2203 -4.7288 z M26.754220338983053 21.4578 c0.16949 0.13559 0.16933 0.30508 0.016784 0.45763 c-1.2542 1.3729 -3.0339 2.2032 -5.0678 2.2032 c-3.7288 0 -6.8475 -2.9998 -6.8475 -6.8642 c0 -3.8475 3.1186 -6.9322 6.8475 -6.9322 c2.0508 0 3.8475 0.84746 5.1186 2.2373 c0.15254 0.15254 0.13559 0.32203 -0.016949 0.45763 l-1.4068 1.1356 c-0.16966 0.13559 -0.32203 0.11864 -0.45763 -0.033898 c-0.72881 -0.76271 -1.8644 -1.4575 -3.2203 -1.4575 c-2.4915 0 -4.4405 2.1524 -4.4405 4.5931 c0 2.4746 1.949 4.5254 4.4405 4.5254 c1.339 0 2.4576 -0.66102 3.1695 -1.4068 c0.15254 -0.15254 0.30508 -0.16949 0.47458 -0.050847 z M40.84730508474576 24.72881 c0.22034 0.18644 0.13559 0.42373 -0.016949 0.52542 l-1.322 0.81356 c-0.42373 0.27119 -0.91525 0.16933 -1.1525 -0.23729 l-1.2544 -2.0847 c-0.69475 0.23729 -1.4575 0.37271 -2.2541 0.37271 c-3.8305 0 -6.9322 -3.0507 -6.9322 -6.9151 c0 -3.8305 3.1017 -6.8814 6.9322 -6.8814 c3.7966 0 6.8983 3.0508 6.8983 6.8814 c0 2.1525 -0.9661 4.0678 -2.4746 5.3222 l0.64407 1.0846 c0.42373 0.66102 0.69492 0.89831 0.9322 1.1186 z M30.338805084745765 17.2036 c0 1.7966 1.0847 3.3898 2.6102 4.1354 c-0.16949 -0.30508 -0.25424 -0.64407 -0.25424 -1.0169 c0 -1.1356 0.98305 -2.1186 2.3559 -2.1186 c0.91525 0 1.6441 0.35593 2.3729 1.339 c0.22034 0.30508 0.38983 0.57627 0.57627 0.88136 c0.83051 -0.83034 1.339 -1.9829 1.339 -3.2202 c0 -2.4576 -2.0508 -4.5422 -4.4915 -4.5422 s-4.5085 2.0846 -4.5085 4.5422 z M34.84730508474576 21.7795 c0.35593 0 0.67797 -0.033898 1.0169 -0.11848 l-0.20339 -0.3222 c-0.32203 -0.5422 -0.62729 -0.74559 -1.1186 -0.74559 c-0.45763 0 -0.77966 0.37288 -0.77966 0.79661 c0 0.084746 0.016949 0.18644 0.050847 0.27119 c0.33898 0.08458 0.67797 0.11848 1.0339 0.11848 z M53.27938983050848 10.424 l-1.7798 0 c-0.18644 0 -0.32203 0.11864 -0.32203 0.33898 l0 8.2203 c0 1.7458 -1.1186 2.7966 -2.9661 2.7966 c-1.8305 0 -2.8983 -1.0508 -2.8983 -2.7966 l0 -8.2203 c0 -0.20339 -0.13559 -0.33898 -0.32203 -0.33898 l-1.7458 0 c-0.20339 0 -0.35576 0.13559 -0.35576 0.33898 l0 8.3051 c0 2.8814 1.9661 5.0507 5.322 5.0507 c3.3729 0 5.3898 -2.1693 5.3898 -5.0507 l0 -8.3051 c0 -0.22034 -0.13559 -0.33898 -0.32203 -0.33898 z M57.338850847457635 10.441 l-1.6778 0 c-0.18644 0 -0.32203 0.15254 -0.32203 0.32203 l0 12.898 c0 0.18644 0.15254 0.33881 0.33898 0.33881 l1.678 0 c0.16933 0 0.32186 -0.16933 0.32186 -0.33881 l0 -12.898 c0 -0.16949 -0.16949 -0.32203 -0.33898 -0.32203 z M66.17781355932205 24.11864 c3.7966 0 6.8983 -3.0507 6.8983 -6.9151 c0 -3.8305 -3.1017 -6.8814 -6.8983 -6.8814 c-3.8305 0 -6.9322 3.0508 -6.9322 6.8814 c0 3.8644 3.1017 6.9151 6.9322 6.9151 z M66.17781355932205 21.7798 c-2.4407 0 -4.5085 -2.1017 -4.5085 -4.5763 c0 -2.4576 2.0678 -4.5422 4.5085 -4.5422 s4.4915 2.0846 4.4915 4.5422 c0 2.4746 -2.0508 4.5763 -4.4915 4.5763 z"/></g><g id="SvgjsG5979" featureKey="text3" fill="#000" transform="matrix(1.0738253933874151,0,0,1.0738253933874151,24.830872725839015,59.05637661145341)"><path d="M12.7 24 l-1.86 0 l-4.32 -5.9 l-2.96 0 l0 5.9 l-1.54 0 l0 -14.58 l5.06 0 c1.72 0 3.1 0.48 3.9 1.28 s1.22 1.8 1.22 2.98 c0 2.46 -1.84 3.88 -4 4.16 z M3.56 10.86 l0 5.84 l3.38 0 c1.28 0 2.28 -0.36 2.86 -0.94 c0.56 -0.56 0.84 -1.26 0.84 -2.04 c0 -1.44 -0.88 -2.86 -3.66 -2.86 l-3.42 0 z M14.513 24 l0 -14.58 l9.12 0 l0 1.42 l-7.58 0 l0 5.04 l6.94 0 l0 1.42 l-6.94 0 l0 5.28 l7.66 0 l0 1.42 l-9.2 0 z M32.226 24.16 c-2 0 -3.86 -0.78 -5.16 -2.06 c-0.64 -0.64 -1.16 -1.42 -1.54 -2.34 c-0.38 -0.94 -0.58 -1.94 -0.58 -3 c0 -1.08 0.2 -2.1 0.6 -3.04 s0.92 -1.74 1.58 -2.38 c1.34 -1.3 3.2 -2.08 5.16 -2.08 c1.54 0 2.94 0.46 3.88 1.12 c0.48 0.32 0.9 0.7 1.28 1.12 c0.74 0.86 1.14 1.72 1.36 2.56 l-1.46 0.52 c-0.12 -0.48 -0.32 -1 -0.86 -1.76 c-0.28 -0.38 -0.58 -0.72 -0.94 -1.02 s-0.82 -0.56 -1.4 -0.76 c-0.58 -0.22 -1.2 -0.32 -1.9 -0.32 c-1.52 0 -2.98 0.62 -4 1.64 c-1.04 1.04 -1.7 2.58 -1.7 4.3 c0 1.14 0.24 2.18 0.74 3.1 c0.48 0.92 1.16 1.64 2.06 2.16 c0.86 0.52 1.84 0.78 2.92 0.78 c1.34 0 2.5 -0.46 3.2 -1.02 c0.36 -0.28 0.68 -0.6 0.96 -1 c0.28 -0.38 0.48 -0.72 0.62 -1 c0.12 -0.28 0.24 -0.58 0.34 -0.88 l1.46 0.52 c-0.22 0.78 -0.6 1.58 -1.34 2.48 c-0.36 0.44 -0.8 0.84 -1.26 1.18 c-0.96 0.68 -2.42 1.18 -4.02 1.18 z M51.358999999999995 24 l-1.86 0 l-4.32 -5.9 l-2.96 0 l0 5.9 l-1.54 0 l0 -14.58 l5.06 0 c1.72 0 3.1 0.48 3.9 1.28 s1.22 1.8 1.22 2.98 c0 2.46 -1.84 3.88 -4 4.16 z M42.219 10.86 l0 5.84 l3.38 0 c1.28 0 2.28 -0.36 2.86 -0.94 c0.56 -0.56 0.84 -1.26 0.84 -2.04 c0 -1.44 -0.88 -2.86 -3.66 -2.86 l-3.42 0 z M62.412 9.42 l1.54 0 l0 8.88 c0 1.84 -0.5 3.28 -1.44 4.3 c-0.96 1.02 -2.32 1.54 -4.06 1.54 c-1.72 0 -3.08 -0.52 -4.02 -1.56 c-0.96 -1.04 -1.44 -2.42 -1.44 -4.18 l0 -8.98 l1.52 0 l0 8.9 c0 1.54 0.44 2.72 1.16 3.38 c0.74 0.68 1.68 1 2.86 1 c1.24 0 2.2 -0.36 2.88 -1.12 c0.66 -0.76 1 -1.8 1 -3.18 l0 -8.98 z M66.885 24 l0 -14.58 l1.54 0 l0 14.58 l-1.54 0 z M76.33800000000001 10.86 l0 13.14 l-1.52 0 l0 -13.14 l-4.88 0 l0 -1.44 l11.28 0 l0 1.44 l-4.88 0 z M95.751 9.42 l2.2 0 l0 14.58 l-1.52 0 l0 -12.5 l0 0 l-5.42 12.5 l-1.38 0 l-5.38 -12.4 l0 0 l0 12.4 l-1.52 0 l0 -14.58 l2.18 0 l5.44 12.5 z M101.10400000000001 24 l0 -14.58 l9.12 0 l0 1.42 l-7.58 0 l0 5.04 l6.94 0 l0 1.42 l-6.94 0 l0 5.28 l7.66 0 l0 1.42 l-9.2 0 z M122.93700000000003 9.42 l1.5 0 l0 14.58 l-1.66 0 l-8.7 -12.4 l0 12.4 l-1.52 0 l0 -14.58 l1.78 0 l8.6 12.26 l0 -12.26 z M132.37000000000003 10.86 l0 13.14 l-1.52 0 l0 -13.14 l-4.88 0 l0 -1.44 l11.28 0 l0 1.44 l-4.88 0 z"/></g>
			</g>
		</svg>
	